{"title":"NBA (02-12-11) Bulls vs. Hornets *Hennessy*","uid":6658161,"size":2111683717,"categoryP":"video","categoryS":"other","magnet":"?xt=urn:btih:4bea0ce2e1fafd2d7cddabd93c1f01b72841debc&amp;dn=NBA+%2802-12-11%29+Bulls+vs.+Hornets+%2AHennessy%2A&amp;tr=udp%3A%2F%2Ftracker.openbittorrent.com%3A80&amp;tr=udp%3A%2F%2Fopen.demonii.com%3A1337&amp;tr=udp%3A%2F%2Ftracker.coppersurfer.tk%3A6969&amp;tr=udp%3A%2F%2Fexodus.desync.com%3A6969","seeders":0,"leechers":0,"uploader":null,"files":-1,"time":1315403224,"description":"Chris Paul &amp; Derrick Rose - need I say more? Enjoy... Not the best quality, still very watchable\n\nVideo\nID                               : 224 (0xE0)\nFormat                           : MPEG Video\nFormat version                   : Version 2\nFormat profile                   : High@High\nFormat settings, BVOP            : Yes\nFormat settings, Matrix          : Default\nFormat settings, GOP             : M=3, N=12\nDuration                         : 6mn 54s\nBit rate mode                    : Variable\nBit rate                         : 10.2 Mbps\nNominal bit rate                 : 4 500 Kbps\nWidth                            : 960 pixels\nHeight                           : 536 pixels\nDisplay aspect ratio             : 16:9\nFrame rate                       : 25.000 fps\nColor space                      : YUV\nChroma subsampling               : 4:2:0\nBit depth                        : 8 bits\nScan type                        : Progressive\nScan order                       : Bottom Field First\nCompression mode                 : Lossy\nBits/(Pixel*Frame)               : 0.792\nStream size                      : 503 MiB (97%)\n\nAudio\nID                               : 192 (0xC0)\nFormat                           : MPEG Audio\nFormat version                   : Version 1\nFormat profile                   : Layer 2\nDuration                         : 6mn 53s\nBit rate mode                    : Constant\nBit rate                         : 128 Kbps\nChannel(s)                       : 2 channels\nSampling rate                    : 44.1 KHz\nCompression mode                 : Lossy\nDelay relative to video          : -58ms\nStream size                      : 6.31 MiB (1%)","torrent":{"xt":"urn:btih:4bea0ce2e1fafd2d7cddabd93c1f01b72841debc","amp;dn":"NBA+%2802-12-11%29+Bulls+vs.+Hornets+%2AHennessy%2A","amp;tr":["udp%3A%2F%2Ftracker.openbittorrent.com%3A80","udp%3A%2F%2Fopen.demonii.com%3A1337","udp%3A%2F%2Ftracker.coppersurfer.tk%3A6969","udp%3A%2F%2Fexodus.desync.com%3A6969"],"infoHash":"4bea0ce2e1fafd2d7cddabd93c1f01b72841debc","infoHashBuffer":{"type":"Buffer","data":[75,234,12,226,225,250,253,45,124,221,171,217,60,31,1,183,40,65,222,188]},"announce":[],"urlList":[]}}